<?xml version="1.0" encoding="UTF-8"?>
<svg xmlns="http://www.w3.org/2000/svg" xmlns:xlink="http://www.w3.org/1999/xlink" width="50pt" height="50pt" viewBox="0 0 50 50" version="1.1">
<g id="surface1">
<path style=" stroke:none;fill-rule:nonzero;fill:rgb(0%,0%,0%);fill-opacity:1;" d="M 25 2.007813 C 12.308594 2.007813 2 12.316406 2 25.007813 C 2 37.113281 11.382813 47.042969 23.261719 47.9375 C 23.28125 47.9375 23.304688 47.941406 23.328125 47.941406 C 23.882813 47.980469 24.4375 48.007813 25 48.007813 C 25.5625 48.007813 26.117188 47.980469 26.671875 47.941406 C 26.695313 47.941406 26.71875 47.9375 26.738281 47.9375 C 38.617188 47.042969 48 37.113281 48 25.007813 C 48 12.316406 37.691406 2.007813 25 2.007813 Z M 25 4.007813 C 36.609375 4.007813 46 13.398438 46 25.007813 C 46 30.738281 43.703125 35.925781 39.988281 39.710938 C 38.402344 38.554688 36.4375 37.863281 34.675781 37.246094 C 32.59375 36.515625 30.621094 35.824219 30.078125 34.621094 C 29.988281 33.59375 29.996094 32.792969 30.003906 31.871094 L 30.007813 31.480469 C 30.894531 30.636719 32.011719 28.851563 32.394531 27.203125 C 33.054688 26.851563 33.863281 26.007813 34.105469 23.988281 C 34.222656 22.984375 33.9375 22.207031 33.539063 21.6875 C 34.078125 19.832031 35.152344 15.136719 33.269531 12.105469 C 32.476563 10.824219 31.273438 10.015625 29.695313 9.695313 C 28.808594 8.597656 27.132813 8 24.894531 8 C 21.496094 8.0625 19.003906 9.105469 17.488281 11.09375 C 15.707031 13.445313 15.371094 16.996094 16.484375 21.65625 C 16.074219 22.175781 15.777344 22.964844 15.898438 23.984375 C 16.140625 26.007813 16.945313 26.851563 17.605469 27.203125 C 17.988281 28.851563 19.101563 30.636719 19.992188 31.480469 L 19.996094 31.859375 C 20.003906 32.785156 20.011719 33.589844 19.921875 34.621094 C 19.375 35.828125 17.394531 36.527344 15.300781 37.265625 C 13.550781 37.882813 11.601563 38.574219 10.015625 39.71875 C 6.296875 35.929688 4 30.742188 4 25.007813 C 4 13.398438 13.390625 4.007813 25 4.007813 Z "/>
</g>
</svg>
